<mxfile host="app.diagrams.net" modified="2023-08-11T18:09:03.510Z" agent="Mozilla/5.0 (Windows NT 10.0; Win64; x64) AppleWebKit/537.36 (KHTML, like Gecko) Chrome/115.0.0.0 Safari/537.36" version="21.6.8" etag="MDbSVh2wmarP99Drf9u6" type="github">
  <diagram name="หน้า-1" id="f7hiLl23QVgNDl78fe6t">
    <mxGraphModel>
      <root>
        <mxCell id="0" />
        <mxCell id="1" parent="0" />
      </root>
    </mxGraphModel>
  </diagram>
</mxfile>
